<svg width="95" height="95" viewBox="0 0 95 95" fill="none" xmlns="http://www.w3.org/2000/svg">
<g id="fullscreen-exit">
<g id="exit-br-corner">
<rect id="tl-bottom" x="58.6932" y="57.6364" width="10.6364" height="28.3636" rx="5.31818" fill="white"/>
<rect id="tl-top" x="58.6932" y="68.2727" width="10.6364" height="28.3636" rx="5.31818" transform="rotate(-90 58.6932 68.2727)" fill="white"/>
</g>
<g id="exit-bl-corner">
<rect id="tr-top" x="37.4204" y="57.6364" width="10.6364" height="27.4773" rx="5.31818" transform="rotate(90 37.4204 57.6364)" fill="white"/>
<rect id="tr-bottom" x="26.7841" y="57.6364" width="10.6364" height="27.4773" rx="5.31818" fill="white"/>
</g>
<g id="exit-tl-corner">
<rect id="br-top" x="37.4204" y="35.4773" width="10.6364" height="27.4773" rx="5.31818" transform="rotate(-180 37.4204 35.4773)" fill="white"/>
<rect id="br-bottom" x="37.4204" y="24.8409" width="10.6364" height="27.4773" rx="5.31818" transform="rotate(90 37.4204 24.8409)" fill="white"/>
</g>
<g id="exit-tr-corner">
<rect id="bl-bottom" x="58.6932" y="36.3636" width="10.6364" height="28.3636" rx="5.31818" transform="rotate(-90 58.6932 36.3636)" fill="white"/>
<rect id="bl-top" x="69.3295" y="36.3636" width="10.6364" height="28.3636" rx="5.31818" transform="rotate(-180 69.3295 36.3636)" fill="white"/>
</g>
</g>
</svg>
